<svg width="24" height="24" xmlns="http://www.w3.org/2000/svg"><g fill-rule="nonzero" fill="none"><path d="M24 12c0 6.627-5.373 12-12 12S0 18.627 0 12 5.373 0 12 0s12 5.373 12 12" fill="#FFCC4D"/><path d="M12 14c-2.415 0-4.018-.281-6-.667-.453-.087-1.333 0-1.333 1.334 0 2.666 3.063 6 7.333 6s7.333-3.334 7.333-6c0-1.334-.88-1.422-1.333-1.334-1.982.386-3.585.667-6 .667Z" fill="#664500"/><path d="M6 14.667s2 .666 6 .666 6-.666 6-.666-1.333 2.666-6 2.666-6-2.666-6-2.666Z" fill="#FFF"/><path d="m10.455 2.942-3.028.534L5.867.641a.835.835 0 0 0-1.554.274l-.497 3.198-3.028.534A.834.834 0 0 0 .576 6.22l2.713 1.288-.498 3.208a.835.835 0 0 0 1.417.713l2.341-2.374 3.012 1.43a.834.834 0 0 0 1.088-1.154L9.083 6.487l2.11-2.139a.834.834 0 0 0-.738-1.406Zm3.09 0 3.028.534 1.56-2.835a.835.835 0 0 1 1.554.274l.496 3.198 3.028.534a.834.834 0 0 1 .212 1.573L20.71 7.508l.499 3.208a.835.835 0 0 1-1.418.713L17.45 9.055l-3.012 1.43a.834.834 0 0 1-1.087-1.154l1.565-2.844-2.11-2.139a.834.834 0 0 1 .74-1.406Z" fill="#E95F28"/></g></svg>