<svg width="24" height="24" xmlns="http://www.w3.org/2000/svg"><g fill-rule="nonzero" fill="none"><path d="M24 12c0 6.627-5.373 12-12 12S0 18.627 0 12 5.373 0 12 0s12 5.373 12 12" fill="#FFCC4D"/><path d="M11.11 7.029a.334.334 0 0 0-.395.098c-.006.008-.653.802-2.224 1.23a5.696 5.696 0 0 1-1.496.212c-.662 0-1.04-.141-1.042-.142a.332.332 0 0 0-.38.521c.047.058 1.186 1.431 2.75 1.431.234 0 .468-.031.695-.093 1.903-.519 2.273-2.805 2.288-2.903a.333.333 0 0 0-.197-.354Zm7.316 1.436a.335.335 0 0 0-.393-.106c-.004.002-.422.171-1.158.171-.441 0-.906-.06-1.382-.177-1.58-.388-2.246-1.166-2.252-1.172a.333.333 0 0 0-.586.27c.018.097.446 2.374 2.36 2.845.207.051.419.077.63.077 1.598 0 2.733-1.44 2.78-1.501a.336.336 0 0 0 .001-.407ZM6.666 6.667a.667.667 0 0 1-.164-1.313c.024-.006 2.395-.64 3.568-2.985a.666.666 0 1 1 1.193.596C9.809 5.873 6.949 6.617 6.828 6.647a.678.678 0 0 1-.163.02Zm10.667 0a.672.672 0 0 1-.161-.02c-.121-.03-2.981-.775-4.435-3.682a.667.667 0 0 1 1.193-.597c1.172 2.345 3.543 2.98 3.568 2.985a.668.668 0 0 1-.165 1.314ZM12 19.31c-2.415 0-4.018.281-6 .667-.453.087-1.333 0-1.333-1.334 0-2.666 3.063-6 7.333-6s7.333 3.334 7.333 6c0 1.334-.88 1.422-1.333 1.334-1.982-.386-3.585-.667-6-.667Z" fill="#664500"/><path d="M6.667 16.667S8.667 16 12 16s5.333.667 5.333.667S16 14 12 14s-5.333 2.667-5.333 2.667Z" fill="#FFF"/></g></svg>