<svg width="24" height="24" xmlns="http://www.w3.org/2000/svg"><g fill-rule="nonzero" fill="none"><circle fill="#FFCC4D" cx="12" cy="12" r="12"/><circle fill="#F4F7F9" cx="16.333" cy="9" r="3.667"/><circle fill="#F4F7F9" cx="7.667" cy="9" r="3.667"/><path d="M15.406 15.616c-1.842-.445-5.915-.04-7.441 2.937a.249.249 0 0 0 .222.364c.057 0 .114-.02.161-.058 2.056-1.72 4.957-1.72 6.69-1.72 1.09 0 1.691 0 1.691-.472s-.47-.846-1.323-1.051ZM7 8.666a1.662 1.662 0 0 0 .25-3.308A3.627 3.627 0 0 0 5.8 5.85c-.287.3-.466.704-.466 1.151 0 .92.746 1.667 1.667 1.667Zm8.667 0a1.662 1.662 0 0 0 .25-3.308 3.624 3.624 0 0 0-1.451.491C14.179 6.15 14 6.553 14 7c0 .92.746 1.667 1.667 1.667Z" fill="#65471B"/></g></svg>