<svg width="24" height="24" xmlns="http://www.w3.org/2000/svg"><g fill-rule="nonzero" fill="none"><circle fill="#FFCC4D" cx="12" cy="12" r="12"/><path d="M10.667 11.305a.667.667 0 0 1-.633-.456c-.135-.399-.679-1.544-1.367-1.544-.708 0-1.259 1.218-1.368 1.544a.666.666 0 1 1-1.264-.422c.083-.251.869-2.456 2.632-2.456 1.764 0 2.549 2.205 2.633 2.456a.666.666 0 0 1-.633.878Zm6.666 0a.666.666 0 0 1-.632-.456c-.135-.399-.679-1.544-1.368-1.544-.708 0-1.259 1.218-1.368 1.544a.667.667 0 0 1-1.265-.422c.084-.251.87-2.456 2.633-2.456 1.762 0 2.548 2.205 2.632 2.456a.666.666 0 0 1-.632.878Zm.89 2.489a.334.334 0 0 0-.423-.02c-.026.02-2.615 1.934-5.8 1.934-3.177 0-5.775-1.914-5.8-1.933a.333.333 0 0 0-.486.438c.086.143 2.145 3.495 6.286 3.495s6.2-3.352 6.286-3.495a.333.333 0 0 0-.063-.419Z" fill="#664500"/><path d="M14.153 2.631c0 .16.02.315.054.464.284 1.762 2.243 3.621 3.647 4.132 1.11-.404 2.564-1.651 3.265-3.026A12.018 12.018 0 0 0 15.833.626a2.04 2.04 0 0 0-1.68 2.005ZM9.162 19.385a2.213 2.213 0 0 0-3.95-1.79 2.21 2.21 0 0 0-1.799-.925c-.827 0-1.54.46-1.92 1.132a12.047 12.047 0 0 0 5.379 5.05c1.091-.901 2.087-2.205 2.29-3.467Zm13.705-2.29a1.527 1.527 0 0 0-2.708-.457 1.532 1.532 0 0 0-2.737 1.24c.205 1.27 1.566 2.597 2.607 3.04a12.03 12.03 0 0 0 2.838-3.823Z" fill="#FFAC33"/><path d="M22.417 2.18A2.042 2.042 0 0 0 18.715.991a2.042 2.042 0 0 0-3.647 1.651c.285 1.762 2.243 3.621 3.647 4.132 1.404-.511 3.363-2.37 3.646-4.131a2.02 2.02 0 0 0 .056-.465ZM8.139 18.938a2.213 2.213 0 0 0-4.011-1.287 2.213 2.213 0 0 0-3.951 1.79c.307 1.908 2.429 3.922 3.95 4.475 1.522-.552 3.644-2.566 3.951-4.475.039-.163.06-.33.06-.503Zm15.826-1.521a1.532 1.532 0 0 0-2.778-.891 1.532 1.532 0 0 0-2.737 1.24c.213 1.321 1.683 2.716 2.737 3.099 1.054-.383 2.524-1.778 2.736-3.1.027-.112.042-.228.042-.348Z" fill="#DD2E44"/></g></svg>