<svg width="38" height="38" viewBox="0 0 38 38" fill="none" xmlns="http://www.w3.org/2000/svg">
<rect width="38" height="38" rx="19" fill="#EC255A"/>
<rect x="19.6956" y="9.45789" width="11.5454" height="2.90817" rx="1.45408" transform="rotate(150 19.6956 9.45789)" fill="white"/>
<rect x="28.4199" y="13.1263" width="21.6193" height="2.90817" rx="1.45408" transform="rotate(150 28.4199 13.1263)" fill="white"/>
<rect x="11.64" y="11.8304" width="11.5454" height="2.90817" rx="1.45408" transform="rotate(90 11.64 11.8304)" fill="white"/>
<rect x="19.3283" y="7.42871" width="6.68378" height="2.93434" rx="1.46717" transform="rotate(90 19.3283 7.42871)" fill="white"/>
<rect x="18.3528" y="28.5894" width="11.5454" height="2.90817" rx="1.45408" transform="rotate(-30 18.3528 28.5894)" fill="white"/>
<rect x="9.6286" y="24.9213" width="21.6193" height="2.90817" rx="1.45408" transform="rotate(-30 9.6286 24.9213)" fill="white"/>
<rect x="26.4083" y="26.2168" width="11.5454" height="2.90817" rx="1.45408" transform="rotate(-90 26.4083 26.2168)" fill="white"/>
<rect x="18.7202" y="30.6185" width="6.68378" height="2.93434" rx="1.46717" transform="rotate(-90 18.7202 30.6185)" fill="white"/>
</svg>
